<?xml version="1.0" standalone="no"?>
<!DOCTYPE svg PUBLIC "-//W3C//DTD SVG 20010904//EN"
 "http://www.w3.org/TR/2001/REC-SVG-20010904/DTD/svg10.dtd">
<svg version="1.0" xmlns="http://www.w3.org/2000/svg"
 width="225.000000pt" height="224.000000pt" viewBox="0 0 225.000000 224.000000"
 preserveAspectRatio="xMidYMid meet">

<g transform="translate(0.000000,224.000000) scale(0.100000,-0.100000)"
fill="#000000" stroke="none">
<path d="M975 2229 c-235 -30 -472 -147 -644 -320 -540 -540 -391 -1449 294
-1789 529 -262 1163 -74 1468 437 146 242 190 559 117 843 -98 382 -416 701
-799 800 -146 38 -287 47 -436 29z m324 -24 c718 -117 1133 -892 826 -1542
-314 -666 -1155 -851 -1717 -378 -175 148 -301 354 -360 592 -18 73 -22 115
-22 248 1 139 4 173 26 256 36 135 79 233 151 341 238 362 669 552 1096 483z"/>
<path d="M922 1638 c4 -189 17 -227 90 -275 36 -24 52 -28 113 -28 61 0 77 4
113 28 74 48 86 87 90 275 l4 162 -207 0 -207 0 4 -162z m287 -8 c45 -77 81
-142 81 -145 0 -3 -8 -5 -18 -5 -12 0 -40 39 -90 124 -39 69 -72 131 -72 139
0 12 9 27 16 27 1 0 38 -63 83 -140z m-54 -32 c32 -57 60 -106 62 -110 2 -5
-5 -8 -15 -8 -25 0 -136 189 -126 214 3 9 10 14 14 11 4 -3 34 -51 65 -107z
m-20 -89 c15 -27 14 -29 -4 -29 -28 0 -103 128 -89 154 9 16 14 11 44 -38 19
-32 41 -70 49 -87z m-82 20 c28 -50 28 -50 5 -47 -25 3 -63 61 -54 83 9 25 20
17 49 -36z m-55 -29 c11 -18 10 -20 -13 -20 -27 0 -28 1 -19 24 8 21 17 20 32
-4z"/>
<path d="M450 1065 l0 -167 84 3 c102 5 120 17 137 98 9 41 9 73 1 120 -15 92
-32 105 -137 110 l-85 3 0 -167z m135 101 c15 -11 20 -29 23 -82 5 -95 -7
-124 -53 -124 l-35 0 0 110 c0 108 0 110 23 110 13 0 32 -6 42 -14z"/>
<path d="M720 1065 l0 -165 85 0 85 0 0 30 c0 30 -1 30 -55 30 l-55 0 0 45 0
45 50 0 c47 0 50 2 50 25 0 23 -3 25 -51 25 l-50 0 3 38 3 37 53 3 c48 3 52 5
52 28 0 24 -1 24 -85 24 l-85 0 0 -165z"/>
<path d="M1005 1218 c-9 -25 -85 -303 -85 -310 0 -5 14 -8 30 -8 31 0 34 3 44
53 6 24 10 27 51 27 47 0 65 -16 65 -59 0 -17 6 -21 35 -21 21 0 35 5 35 13 0
6 -20 80 -43 162 l-42 150 -43 3 c-28 2 -44 -1 -47 -10z m64 -120 c16 -66 15
-68 -23 -68 l-33 0 15 65 c9 36 19 62 23 58 3 -5 11 -29 18 -55z"/>
<path d="M1210 1065 l0 -165 35 0 35 0 1 78 1 77 36 -77 c36 -77 37 -78 74
-78 21 0 38 2 38 4 0 2 -21 43 -46 90 l-46 87 34 52 c19 29 40 62 47 75 11 21
10 22 -22 22 -30 0 -36 -6 -72 -67 l-40 -68 -3 68 -3 67 -34 0 -35 0 0 -165z"/>
<path d="M1470 1065 l0 -165 30 0 30 0 0 165 0 165 -30 0 -30 0 0 -165z"/>
<path d="M1580 1065 l0 -165 25 0 25 0 0 106 c0 58 3 103 8 100 4 -2 25 -50
47 -105 l40 -101 38 0 37 0 0 165 0 165 -30 0 -30 0 0 -102 -1 -103 -40 103
-41 102 -39 0 -39 0 0 -165z"/>
<path d="M450 747 c0 -83 8 -97 60 -97 20 0 41 5 48 12 15 15 17 158 2 158 -6
0 -10 -28 -10 -63 0 -65 -11 -87 -42 -87 -25 0 -38 31 -38 94 0 31 -4 56 -10
56 -6 0 -10 -31 -10 -73z"/>
<path d="M620 735 c0 -71 3 -85 16 -85 13 0 15 10 12 55 -1 30 -1 55 2 55 3 0
21 -25 40 -55 50 -78 60 -73 60 31 0 64 -3 85 -12 82 -8 -3 -15 -28 -18 -58
l-5 -54 -38 57 c-20 31 -42 57 -47 57 -6 0 -10 -36 -10 -85z"/>
<path d="M800 735 c0 -50 4 -85 10 -85 6 0 10 35 10 85 0 50 -4 85 -10 85 -6
0 -10 -35 -10 -85z"/>
<path d="M860 813 c0 -26 54 -163 64 -163 7 0 23 33 35 73 13 39 26 78 28 85
3 6 -1 12 -9 12 -9 0 -22 -25 -34 -67 l-20 -68 -20 64 c-10 35 -25 66 -32 69
-6 2 -12 0 -12 -5z"/>
<path d="M1024 807 c-3 -8 -4 -45 -2 -83 l3 -69 53 -3 c31 -2 52 1 52 7 0 6
-18 11 -40 11 -36 0 -40 3 -40 25 0 22 4 25 35 25 24 0 35 5 35 15 0 10 -11
15 -35 15 -28 0 -35 4 -35 20 0 17 7 20 40 20 29 0 40 4 40 15 0 20 -98 22
-106 2z"/>
<path d="M1170 736 c0 -70 3 -86 15 -86 10 0 15 10 15 30 0 19 5 30 14 30 8 0
23 -13 33 -30 24 -42 49 -41 28 0 -14 28 -14 32 0 46 19 20 19 58 0 74 -8 7
-35 15 -60 18 l-45 5 0 -87z m90 30 c0 -23 -16 -36 -46 -36 -9 0 -14 11 -14
30 0 27 3 30 30 30 25 0 30 -4 30 -24z"/>
<path d="M1342 808 c-22 -22 -13 -52 25 -84 42 -35 38 -54 -13 -54 -19 0 -34
-4 -34 -10 0 -11 59 -14 84 -4 29 11 19 57 -21 90 -42 35 -38 58 8 52 18 -3
28 0 26 6 -5 16 -60 19 -75 4z"/>
<path d="M1468 735 c-2 -63 0 -85 10 -85 9 0 12 24 12 85 0 47 -4 85 -9 85 -5
0 -11 -38 -13 -85z"/>
<path d="M1527 814 c-10 -11 2 -24 24 -24 17 0 19 -7 19 -70 0 -56 3 -70 15
-70 12 0 15 14 15 69 0 62 2 70 20 73 12 2 21 8 21 13 -1 11 -103 20 -114 9z"/>
<path d="M1670 815 c0 -3 11 -28 25 -55 14 -27 25 -63 25 -80 0 -20 5 -30 15
-30 11 0 15 11 15 38 0 21 11 56 25 81 29 50 29 51 12 51 -8 0 -22 -19 -33
-41 l-18 -41 -20 41 c-11 22 -26 41 -33 41 -7 0 -13 -2 -13 -5z"/>
</g>
</svg>
